<?xml version="1.0" standalone="no"?><!DOCTYPE svg PUBLIC "-//W3C//DTD SVG 1.1//EN" "http://www.w3.org/Graphics/SVG/1.1/DTD/svg11.dtd"><svg t="1655445120518" class="icon" viewBox="0 0 1024 1024" version="1.1" xmlns="http://www.w3.org/2000/svg" p-id="11523" xmlns:xlink="http://www.w3.org/1999/xlink" width="200" height="200"><defs><style type="text/css">@font-face { font-family: feedback-iconfont; src: url("//at.alicdn.com/t/font_1031158_u69w8yhxdu.woff2?t=1630033759944") format("woff2"), url("//at.alicdn.com/t/font_1031158_u69w8yhxdu.woff?t=1630033759944") format("woff"), url("//at.alicdn.com/t/font_1031158_u69w8yhxdu.ttf?t=1630033759944") format("truetype"); }
</style></defs><path d="M849.69 69.33a31.99 31.99 0 0 0-33.59-1.1c-57.78 33.08-165.49 87.3-208.54 91.96-31.58 3.41-65-14.31-97.32-31.45C479.89 112.64 448.5 96 416 96c-65.01 0-122 12.76-169.37 37.93-36.7 19.5-54.11 39.77-55.98 42.02-7.67 9.24-9.51 22-4.78 33.03l87.32 203.77 64.93 151.33a33.14 33.14 0 0 0 1.95 3.8l123.75 288.23c6.97 16.24 25.79 23.75 42.03 16.78 16.24-6.97 23.75-25.79 16.78-42.03l-119.44-278.2c19.12-33.43 61.86-94.7 105.57-105.63 50.51-12.63 70.95-11.35 90.72-10.12 21.97 1.37 44.69 2.79 92.33-11.38 59.38-17.65 106.48-79.35 139.99-183.38 23.33-72.44 31.63-139.5 31.97-142.32 1.45-12-3.99-23.81-14.08-30.5zM770.6 223.41c-25.86 79.88-60.32 129.88-97.03 140.79-36.76 10.93-51.47 10.01-70.11 8.85-22.32-1.39-50.1-3.12-110.22 11.91-38.77 9.69-76.79 38.82-112.98 86.58-2.61 3.45-5.12 6.87-7.51 10.23L253.83 204.79c6.42-4.78 15.1-10.45 26.21-16.09C305.82 175.6 350.33 160 416 160c16.59 0 39.74 12.28 64.26 25.28 35.01 18.57 74.21 39.36 118.9 39.36 5.02 0 10.12-0.26 15.28-0.82 44.93-4.86 120.96-40.46 174.33-68.01-4.49 20.34-10.46 43.79-18.17 67.6z" p-id="11524"></path><path d="M512 960c-114.22 0-222.03-13.82-303.57-38.91-41.59-12.8-74.75-28.07-98.57-45.39C71.96 848.12 64 819.31 64 800c0-14.91 4.83-37.5 27.82-60.44 14.51-14.48 34.97-27.84 60.81-39.72 47.53-21.86 113.14-38.82 189.74-49.04 17.51-2.34 33.61 9.97 35.95 27.49 2.34 17.52-9.97 33.61-27.49 35.95-70.35 9.39-129.64 24.52-171.46 43.75C138.82 776.63 128 793.17 128 800c0 4.71 5.13 13.48 19.52 23.95 17.83 12.97 45.41 25.42 79.74 35.98C302.86 883.19 403.99 896 512 896s209.14-12.81 284.75-36.08c34.33-10.56 61.9-23 79.74-35.98C890.87 813.48 896 804.71 896 800s-5.13-13.48-19.52-23.95c-17.83-12.97-45.41-25.42-79.74-35.98C721.14 716.81 620.01 704 512 704c-5.18 0-10.44 0.03-15.63 0.09-17.72 0.2-32.17-13.95-32.37-31.63-0.2-17.67 13.96-32.16 31.63-32.37 5.43-0.06 10.94-0.09 16.37-0.09 114.22 0 222.03 13.82 303.57 38.91 41.59 12.8 74.75 28.07 98.57 45.39C952.04 751.88 960 780.69 960 800s-7.96 48.12-45.87 75.7c-23.81 17.32-56.98 32.6-98.57 45.39C734.03 946.18 626.22 960 512 960z" p-id="11525"></path></svg>