<?xml version="1.0" standalone="no"?><!DOCTYPE svg PUBLIC "-//W3C//DTD SVG 1.1//EN" "http://www.w3.org/Graphics/SVG/1.1/DTD/svg11.dtd"><svg t="1648211289904" class="icon" viewBox="0 0 1024 1024" version="1.1" xmlns="http://www.w3.org/2000/svg" p-id="3426" xmlns:xlink="http://www.w3.org/1999/xlink" width="200" height="200"><defs><style type="text/css">@font-face { font-family: feedback-iconfont; src: url("//at.alicdn.com/t/font_1031158_u69w8yhxdu.woff2?t=1630033759944") format("woff2"), url("//at.alicdn.com/t/font_1031158_u69w8yhxdu.woff?t=1630033759944") format("woff"), url("//at.alicdn.com/t/font_1031158_u69w8yhxdu.ttf?t=1630033759944") format("truetype"); }
</style></defs><path d="M938.666667 244.053333l-196.053334-164.48-54.826666 65.28 196.053333 164.48L938.666667 244.053333zM336.213333 144.64l-54.826666-65.28L85.333333 243.84l54.826667 65.28 196.053333-164.48zM511.786667 170.666667C299.52 170.666667 128 342.613333 128 554.666667s171.52 384 383.786667 384S896 766.72 896 554.666667 724.053333 170.666667 511.786667 170.666667zM512 853.333333c-164.906667 0-298.666667-133.76-298.666667-298.666666s133.76-298.666667 298.666667-298.666667 298.666667 133.76 298.666667 298.666667-133.546667 298.666667-298.666667 298.666666z m-62.506667-233.6l-90.453333-90.453333-45.226667 45.226667 135.68 135.68 256.213334-256.213334-45.226667-45.226666-210.986667 210.986666z" fill="" p-id="3427"></path></svg>