<?xml version="1.0" standalone="no"?><!DOCTYPE svg PUBLIC "-//W3C//DTD SVG 1.1//EN" "http://www.w3.org/Graphics/SVG/1.1/DTD/svg11.dtd"><svg t="1648211312459" class="icon" viewBox="0 0 1024 1024" version="1.1" xmlns="http://www.w3.org/2000/svg" p-id="3597" xmlns:xlink="http://www.w3.org/1999/xlink" width="200" height="200"><defs><style type="text/css">@font-face { font-family: feedback-iconfont; src: url("//at.alicdn.com/t/font_1031158_u69w8yhxdu.woff2?t=1630033759944") format("woff2"), url("//at.alicdn.com/t/font_1031158_u69w8yhxdu.woff?t=1630033759944") format("woff"), url("//at.alicdn.com/t/font_1031158_u69w8yhxdu.ttf?t=1630033759944") format("truetype"); }
</style></defs><path d="M512 256c164.906667 0 298.666667 133.76 298.666667 298.666667 0 36.053333-6.613333 70.4-18.346667 102.4l64.853333 64.853333A379.52 379.52 0 0 0 896 554.666667c0-212.053333-171.946667-384-384.213333-384-59.946667 0-116.48 14.08-167.253334 38.613333l65.066667 65.066667c32-11.733333 66.346667-18.346667 102.4-18.346667z m426.666667-11.946667l-196.053334-164.48-54.826666 65.28 196.053333 164.48L938.666667 244.053333zM124.586667 97.92L70.186667 152.106667l56.746666 56.746666-47.36 39.68 60.586667 60.586667 47.36-39.68 34.133333 34.133333A382.805333 382.805333 0 0 0 128 554.666667c0 212.053333 171.52 384 383.786667 384 96.213333 0 183.893333-35.626667 251.093333-93.866667l93.866667 93.866667 54.186666-54.4L166.186667 139.52 124.586667 97.92z m578.133333 686.72A298.026667 298.026667 0 0 1 512 853.333333c-164.906667 0-298.666667-133.76-298.666667-298.666666 0-72.533333 25.813333-138.88 68.693334-190.72l420.693333 420.693333zM341.973333 139.733333l-60.586666-60.586666-36.266667 30.506666 60.586667 60.586667 36.266666-30.506667z" fill="" p-id="3598"></path></svg>