<?xml version="1.0" standalone="no"?><!DOCTYPE svg PUBLIC "-//W3C//DTD SVG 1.1//EN" "http://www.w3.org/Graphics/SVG/1.1/DTD/svg11.dtd"><svg t="1655444526862" class="icon" viewBox="0 0 1024 1024" version="1.1" xmlns="http://www.w3.org/2000/svg" p-id="2215" xmlns:xlink="http://www.w3.org/1999/xlink" width="200" height="200"><defs><style type="text/css">@font-face { font-family: feedback-iconfont; src: url("//at.alicdn.com/t/font_1031158_u69w8yhxdu.woff2?t=1630033759944") format("woff2"), url("//at.alicdn.com/t/font_1031158_u69w8yhxdu.woff?t=1630033759944") format("woff"), url("//at.alicdn.com/t/font_1031158_u69w8yhxdu.ttf?t=1630033759944") format("truetype"); }
</style></defs><path d="M164.571429 416.475429V621.714286a18.285714 18.285714 0 1 1-36.571429 0v-225.206857l-27.062857-14.738286a18.285714 18.285714 0 0 1 0-32.109714l402.285714-219.428572a18.285714 18.285714 0 0 1 17.554286 0l402.285714 219.428572a18.285714 18.285714 0 0 1 0 32.109714l-402.285714 219.428571a18.285714 18.285714 0 0 1-17.554286 0L164.571429 416.475429zM749.714286 548.571429a18.285714 18.285714 0 1 1 36.571428 0v201.142857a18.285714 18.285714 0 0 1-10.093714 16.347428l-256 128a18.285714 18.285714 0 0 1-16.384 0l-256-128A18.285714 18.285714 0 0 1 237.714286 749.714286V548.571429a18.285714 18.285714 0 1 1 36.571428 0v189.842285l237.714286 118.857143 237.714286-118.857143V548.571429zM512 167.131429L147.894857 365.714286 512 564.297143 876.105143 365.714286 512 167.131429z" p-id="2216"></path></svg>