<?xml version="1.0" standalone="no"?><!DOCTYPE svg PUBLIC "-//W3C//DTD SVG 1.1//EN" "http://www.w3.org/Graphics/SVG/1.1/DTD/svg11.dtd"><svg t="1655444601220" class="icon" viewBox="0 0 1024 1024" version="1.1" xmlns="http://www.w3.org/2000/svg" p-id="5305" xmlns:xlink="http://www.w3.org/1999/xlink" width="200" height="200"><defs><style type="text/css">@font-face { font-family: feedback-iconfont; src: url("//at.alicdn.com/t/font_1031158_u69w8yhxdu.woff2?t=1630033759944") format("woff2"), url("//at.alicdn.com/t/font_1031158_u69w8yhxdu.woff?t=1630033759944") format("woff"), url("//at.alicdn.com/t/font_1031158_u69w8yhxdu.ttf?t=1630033759944") format("truetype"); }
</style></defs><path d="M605.848435 958.708971c-0.36225 0-0.724501-0.008186-1.088798-0.026606-9.098215-0.468674-16.872273-6.712889-19.288299-15.495926L476.898551 548.458353 80.07064 437.83486c-8.760524-2.442632-14.976086-10.218736-15.427364-19.304671-0.451278-9.083889 4.965082-17.437138 13.44215-20.73423L929.251056 66.728774c7.80885-3.038196 16.669658-1.174756 22.597671 4.750187 5.922896 5.92392 7.788383 14.789844 4.751211 22.597671L625.531729 945.241238C622.361527 953.390849 614.518908 958.708971 605.848435 958.708971zM152.537092 414.172951l347.232352 96.79658c7.148817 1.9934 12.726859 7.591909 14.696724 14.746866l94.821599 344.730369 290.525839-746.93166L152.537092 414.172951z" p-id="5306"></path></svg>