<?xml version="1.0" standalone="no"?><!DOCTYPE svg PUBLIC "-//W3C//DTD SVG 1.1//EN" "http://www.w3.org/Graphics/SVG/1.1/DTD/svg11.dtd"><svg t="1648457162558" class="icon" viewBox="0 0 1024 1024" version="1.1" xmlns="http://www.w3.org/2000/svg" p-id="6139" xmlns:xlink="http://www.w3.org/1999/xlink" width="200" height="200"><defs><style type="text/css">@font-face { font-family: feedback-iconfont; src: url("//at.alicdn.com/t/font_1031158_u69w8yhxdu.woff2?t=1630033759944") format("woff2"), url("//at.alicdn.com/t/font_1031158_u69w8yhxdu.woff?t=1630033759944") format("woff"), url("//at.alicdn.com/t/font_1031158_u69w8yhxdu.ttf?t=1630033759944") format("truetype"); }
</style></defs><path d="M885.9 753.3c-20.6-48.8-50.2-92.6-87.8-130.2-37.6-37.6-81.4-67.1-130.2-87.8-5-2.1-10.1-4.1-15.2-6.1 11.3-8 22-17.1 32-27.1 47.1-47.1 73-109.7 73-176.3s-25.9-129.2-73-176.3-109.7-73-176.3-73-129.2 25.9-176.3 73-73 109.7-73 176.3 25.9 129.2 73 176.3c10 10 20.7 19 32 27.1-5.1 1.9-10.1 3.9-15.2 6.1-48.8 20.6-92.6 50.2-130.2 87.8-37.6 37.6-67.1 81.4-87.8 130.2-21.4 50.5-32.2 104.2-32.2 159.4 0 19.9 16.1 36 36 36s36-16.1 36-36c0-90.2 35.1-174.9 98.9-238.7 63-63 146.4-98 235.3-98.8h6.8c89.1 0.8 172.5 35.8 235.5 98.8 63.8 63.8 98.9 148.5 98.9 238.7 0 19.9 16.1 36 36 36s36-16.1 36-36c0-55.3-10.9-108.9-32.2-159.4zM331.2 326c0-97.7 79.5-177.3 177.3-177.3S685.8 228.2 685.8 326c0 96.3-77.2 174.9-172.9 177.2h-8.8c-95.7-2.4-172.9-81-172.9-177.2z" p-id="6140"></path></svg>