<?xml version="1.0" standalone="no"?><!DOCTYPE svg PUBLIC "-//W3C//DTD SVG 1.1//EN" "http://www.w3.org/Graphics/SVG/1.1/DTD/svg11.dtd"><svg t="1654942456851" class="icon" viewBox="0 0 1024 1024" version="1.1" xmlns="http://www.w3.org/2000/svg" p-id="4490" xmlns:xlink="http://www.w3.org/1999/xlink" width="200" height="200"><defs><style type="text/css">@font-face { font-family: feedback-iconfont; src: url("//at.alicdn.com/t/font_1031158_u69w8yhxdu.woff2?t=1630033759944") format("woff2"), url("//at.alicdn.com/t/font_1031158_u69w8yhxdu.woff?t=1630033759944") format("woff"), url("//at.alicdn.com/t/font_1031158_u69w8yhxdu.ttf?t=1630033759944") format("truetype"); }
</style></defs><path d="M928 896H96c-52.8 0-96-43.2-96-96V224c0-52.8 43.2-96 96-96h832c52.8 0 96 43.2 96 96v576c0 52.8-43.2 96-96 96zM96 192c-17.6 0-32 14.4-32 32v576c0 17.6 14.4 32 32 32h832c17.6 0 32-14.4 32-32V224c0-17.6-14.4-32-32-32H96z" p-id="4491"></path><path d="M416 384H160c-17.6 0-32-14.4-32-32s14.4-32 32-32h256c17.6 0 32 14.4 32 32s-14.4 32-32 32zM416 544H160c-17.6 0-32-14.4-32-32s14.4-32 32-32h256c17.6 0 32 14.4 32 32s-14.4 32-32 32zM416 704H160c-17.6 0-32-14.4-32-32s14.4-32 32-32h256c17.6 0 32 14.4 32 32s-14.4 32-32 32zM800 537.6c28.8-25.6 48-64 48-105.6 0-80-64-144-144-144s-144 64-144 144c0 41.6 17.6 80 48 105.6-57.6 33.6-96 94.4-96 166.4 0 17.6 14.4 32 32 32s32-14.4 32-32c0-70.4 57.6-128 128-128s128 57.6 128 128c0 17.6 14.4 32 32 32s32-14.4 32-32c0-70.4-38.4-132.8-96-166.4zM624 432c0-44.8 35.2-80 80-80s80 35.2 80 80-35.2 80-80 80-80-35.2-80-80z" p-id="4492"></path></svg>