<?xml version="1.0" standalone="no"?><!DOCTYPE svg PUBLIC "-//W3C//DTD SVG 1.1//EN" "http://www.w3.org/Graphics/SVG/1.1/DTD/svg11.dtd"><svg t="1654942323530" class="icon" viewBox="0 0 1024 1024" version="1.1" xmlns="http://www.w3.org/2000/svg" p-id="4228" xmlns:xlink="http://www.w3.org/1999/xlink" width="200" height="200"><defs><style type="text/css">@font-face { font-family: feedback-iconfont; src: url("//at.alicdn.com/t/font_1031158_u69w8yhxdu.woff2?t=1630033759944") format("woff2"), url("//at.alicdn.com/t/font_1031158_u69w8yhxdu.woff?t=1630033759944") format("woff"), url("//at.alicdn.com/t/font_1031158_u69w8yhxdu.ttf?t=1630033759944") format("truetype"); }
</style></defs><path d="M941.681778 221.724444h-233.216a25.230222 25.230222 0 0 1-25.400889-25.543111c0-14.279111 11.178667-25.514667 25.400889-25.514666h233.216c14.222222 0 25.400889 11.235556 25.400889 25.514666a25.230222 25.230222 0 0 1-25.400889 25.543111z m-21.333334 161.336889H740.977778a25.230222 25.230222 0 0 1-25.400889-25.543111c0-14.279111 11.178667-25.514667 25.400889-25.514666h179.370666c14.222222 0 25.400889 11.235556 25.400889 25.514666a25.230222 25.230222 0 0 1-25.400889 25.543111z m-150.414222 434.460445l124.501334-322.673778a25.6 25.6 0 0 1 33.024-14.791111c13.198222 5.091556 19.797333 19.911111 15.729777 33.678222L797.895111 890.026667a24.462222 24.462222 0 0 1-8.135111 10.723555c0 1.024 0.512 2.048 0.512 3.043556a59.904 59.904 0 0 1-14.734222 44.401778 56.120889 56.120889 0 0 1-42.183111 18.915555H114.033778a57.230222 57.230222 0 0 1-42.183111-18.915555c-11.178667-11.719111-16.241778-28.074667-14.734223-44.401778 14.734222-152.632889 117.873778-275.171556 254.549334-319.089778a215.04 215.04 0 0 1-100.096-182.243556c0-118.471111 94.520889-214.954667 211.370666-214.954666 116.337778 0 211.342222 96.483556 211.342223 214.954666a215.580444 215.580444 0 0 1-100.096 182.243556c109.738667 35.242667 197.660444 121.514667 235.747555 232.817778z" p-id="4229"></path></svg>